<?xml version="1.0" standalone="no"?>
<!DOCTYPE svg PUBLIC "-//W3C//DTD SVG 20010904//EN"
 "http://www.w3.org/TR/2001/REC-SVG-20010904/DTD/svg10.dtd">
<svg version="1.0" xmlns="http://www.w3.org/2000/svg"
 width="1080.000000pt" height="1080.000000pt" viewBox="0 0 1080.000000 1080.000000"
 preserveAspectRatio="xMidYMid meet">
<metadata>
Created by potrace 1.16, written by Peter Selinger 2001-2019
</metadata>
<g transform="translate(0.000000,1080.000000) scale(0.100000,-0.100000)"
fill="#000000" stroke="none">
<path d="M5185 9714 c-188 -44 -241 -58 -300 -78 -170 -59 -288 -130 -391
-238 -69 -71 -105 -136 -123 -218 -7 -30 -22 -73 -33 -95 -92 -177 -113 -223
-134 -295 -13 -45 -18 -50 -43 -50 -71 0 -147 -48 -189 -119 -26 -45 -26 -46
-27 -257 l0 -212 30 -43 c36 -52 100 -98 146 -108 28 -6 35 -13 42 -41 38
-148 138 -339 269 -518 l39 -53 -54 -49 c-52 -47 -89 -114 -99 -175 -3 -16
-12 -21 -51 -23 -84 -5 -203 44 -268 110 -31 32 -37 46 -43 100 -4 35 -14 78
-23 95 -19 41 -71 92 -101 100 -30 7 -44 36 -77 158 -15 55 -34 127 -43 159
-19 70 -49 109 -105 138 -145 74 -296 -49 -259 -210 l10 -43 -31 26 c-109 90
-233 85 -300 -12 -23 -34 -27 -49 -27 -114 0 -82 6 -95 74 -168 32 -33 123
-108 204 -167 2 -1 -12 -26 -30 -55 -31 -50 -33 -60 -33 -139 0 -80 2 -88 33
-133 19 -26 58 -64 88 -84 30 -20 54 -42 54 -50 0 -42 131 -254 209 -337 49
-53 174 -152 216 -172 33 -15 34 -18 18 -30 -10 -7 -24 -14 -30 -14 -13 0
-157 -72 -277 -139 -258 -142 -551 -402 -732 -651 -82 -113 -140 -210 -203
-340 -18 -36 -36 -72 -41 -81 -15 -28 -59 -143 -82 -214 -19 -58 -23 -92 -23
-195 0 -126 16 -204 58 -287 29 -57 30 -70 3 -77 -14 -3 -52 -32 -85 -64 -44
-42 -62 -68 -71 -101 -14 -52 -5 -130 20 -181 10 -19 21 -46 25 -58 6 -20 4
-23 -12 -19 -10 3 -67 13 -128 22 -60 9 -154 25 -208 36 -154 30 -137 36 -318
-113 l-161 -132 6 -67 c8 -87 53 -273 77 -322 19 -36 20 -37 79 -37 32 0 61
-4 64 -8 3 -5 -27 -31 -67 -58 l-72 -49 3 -70 c5 -82 31 -167 78 -250 66 -117
63 -115 293 -181 70 -20 78 -30 102 -130 29 -123 40 -154 57 -154 9 0 67 -11
127 -24 61 -14 147 -32 193 -42 l82 -17 16 -55 c26 -90 76 -197 139 -302 145
-242 372 -441 660 -580 257 -123 416 -167 775 -214 446 -57 517 -61 1200 -61
674 0 811 7 1170 57 80 11 163 22 185 25 128 13 548 93 690 132 59 16 183 72
271 123 116 66 213 140 294 223 36 37 72 74 81 83 18 18 60 77 112 157 65 99
167 334 167 386 0 13 21 24 83 44 88 29 124 54 157 107 26 43 25 87 -2 150
-17 41 -19 51 -8 58 12 7 12 25 1 111 l-12 101 32 27 c35 30 36 15 -6 146 -24
74 -46 157 -42 161 1 2 34 -8 72 -23 85 -31 272 -82 301 -83 27 0 183 145 241
224 73 101 72 103 -54 255 -95 115 -112 131 -138 131 -49 0 -153 34 -265 88
-105 49 -105 50 -123 100 -35 102 -157 219 -342 328 -17 9 -14 16 34 78 61 80
90 136 128 243 26 72 28 89 28 228 0 171 -1 174 -87 350 -124 256 -235 413
-428 605 -153 154 -258 235 -515 397 -32 20 -82 47 -208 110 l-118 59 58 39
c120 79 244 228 327 391 26 52 44 75 65 83 39 17 107 89 126 135 29 70 20 170
-21 242 l-24 40 64 43 c95 62 191 155 216 207 32 64 25 139 -18 199 -19 27
-26 45 -19 45 55 0 183 111 173 150 0 3 9 19 22 37 l22 32 -31 -4 c-38 -5 -59
-21 -59 -45 0 -10 -7 -23 -15 -30 -8 -7 -15 -18 -15 -25 0 -16 -69 -79 -112
-101 -25 -14 -57 -18 -130 -19 -88 0 -99 -2 -122 -24 -14 -14 -28 -22 -30 -20
-3 3 0 24 6 47 10 41 10 43 -29 85 -21 23 -48 61 -59 85 -12 26 -28 44 -42 48
-42 11 -120 -2 -156 -27 -35 -24 -86 -102 -86 -132 0 -22 -55 -195 -79 -248
-14 -32 -29 -49 -45 -53 -63 -16 -121 -100 -132 -193 -8 -64 -25 -87 -90 -129
-67 -43 -132 -64 -200 -64 l-51 0 -7 52 c-8 55 -30 99 -79 155 -18 20 -26 37
-21 45 4 7 42 60 84 118 138 189 233 357 265 465 11 37 16 41 63 51 80 18 135
65 167 144 15 36 19 81 23 221 4 164 3 178 -18 227 -23 54 -82 116 -126 132
-14 6 -41 10 -60 10 -19 0 -36 5 -38 13 -23 97 -125 335 -161 377 -7 8 -16 31
-20 50 -13 63 -56 153 -102 212 -39 51 -139 139 -198 175 -107 65 -138 79
-285 131 -194 68 -256 76 -580 78 -162 1 -304 0 -315 -2z m549 -99 c117 -15
267 -52 356 -86 74 -28 218 -104 255 -135 25 -21 18 -19 -35 10 -186 99 -473
150 -840 150 -391 -1 -648 -57 -832 -182 -65 -44 -75 -48 -53 -23 67 77 286
187 458 230 197 50 478 64 691 36z m101 -170 c435 -57 698 -244 850 -602 95
-227 135 -508 100 -713 -37 -226 -117 -389 -329 -675 -179 -240 -303 -339
-498 -396 -61 -18 -107 -22 -283 -26 -337 -8 -605 16 -726 64 -141 55 -231
136 -393 353 -251 336 -332 540 -330 835 2 348 117 679 307 882 172 184 391
269 757 297 106 8 426 -3 545 -19z m-2264 -1538 c25 -19 36 -46 64 -162 15
-61 35 -131 45 -157 l18 -48 -54 -24 c-29 -14 -65 -36 -79 -50 -20 -20 -36
-26 -72 -26 -32 0 -60 -8 -90 -26 l-44 -25 -77 56 c-43 30 -102 80 -132 110
-47 48 -55 60 -55 95 0 27 8 46 24 64 48 51 91 31 245 -113 47 -45 92 -81 100
-81 15 0 46 26 46 39 0 4 -16 70 -35 147 -19 76 -35 144 -35 150 0 6 9 23 21
38 16 20 29 26 57 26 20 0 44 -6 53 -13z m3870 -116 c32 -26 29 -64 -17 -217
-40 -134 -39 -156 5 -162 15 -2 39 13 80 50 93 86 193 158 222 158 30 0 66
-31 75 -65 10 -41 -5 -76 -49 -117 -58 -53 -206 -158 -224 -158 -7 0 -27 10
-43 21 -17 13 -50 24 -81 27 -43 4 -60 11 -87 38 -19 18 -54 41 -78 50 l-43
16 15 37 c8 20 33 97 54 171 27 93 46 140 61 153 28 22 81 22 110 -2z m-3618
-359 c28 -25 46 -76 63 -181 16 -102 20 -113 34 -92 7 12 15 9 42 -14 41 -34
43 -39 58 -153 15 -109 8 -322 -13 -397 -8 -27 -28 -81 -45 -119 -36 -77 -32
-76 -120 -23 -69 41 -157 121 -210 190 -41 52 -132 204 -132 219 0 3 8 8 18
10 11 2 -10 18 -58 45 -187 103 -209 218 -72 366 44 46 94 77 124 77 7 0 21
-18 31 -39 10 -23 31 -45 52 -57 31 -17 35 -23 35 -61 0 -61 -13 -88 -77 -154
l-56 -59 29 0 c84 0 182 124 184 229 0 21 8 44 22 58 l21 23 -45 0 c-58 0
-101 30 -96 69 2 19 15 32 47 50 77 42 126 46 164 13z m3409 -113 c35 -20 44
-30 46 -56 4 -42 -27 -63 -92 -63 l-49 0 20 -22 c14 -16 22 -42 26 -85 9 -107
78 -196 163 -210 l39 -6 -57 61 c-45 49 -59 72 -68 115 -13 57 -3 97 24 97 18
0 76 66 76 87 0 12 7 14 31 9 45 -9 86 -41 135 -108 49 -67 67 -120 58 -167
-11 -53 -86 -127 -173 -168 -46 -23 -69 -39 -58 -41 9 -2 17 -9 17 -15 0 -18
-75 -133 -133 -204 -84 -104 -269 -236 -309 -221 -21 8 -67 127 -84 216 -18
95 -18 243 1 358 19 117 19 117 66 149 31 20 44 24 54 15 15 -13 20 3 44 129
13 67 39 129 63 148 32 27 90 20 160 -18z m-2526 -178 c40 -38 94 -75 146
-100 165 -81 273 -95 713 -96 324 0 344 1 418 23 84 24 176 67 245 114 l43 30
52 -41 c75 -57 171 -100 245 -107 35 -4 62 -12 62 -18 0 -6 -7 -47 -15 -91
-27 -152 -12 -362 36 -507 10 -32 19 -60 19 -64 0 -10 -94 5 -166 27 l-65 20
-51 110 c-28 60 -54 109 -58 109 -4 0 3 -60 16 -132 30 -166 64 -362 64 -367
0 -2 -79 -1 -176 2 l-176 7 -44 49 c-70 78 -74 78 -524 96 -530 20 -553 20
-608 -7 -27 -12 -57 -38 -75 -64 l-31 -44 -165 7 c-91 3 -168 8 -171 10 -2 2
10 77 28 166 38 187 64 355 59 370 -2 6 -27 -44 -57 -111 l-54 -122 -45 -15
c-47 -15 -181 -38 -187 -32 -2 1 8 37 21 78 45 142 58 241 51 389 -3 74 -9
152 -12 173 l-6 37 43 0 c95 0 228 54 303 122 22 20 45 37 50 38 5 0 37 -27
72 -59z m-419 -963 c-4 -75 -12 -114 -27 -143 -24 -48 -25 -85 -3 -128 23 -45
18 -141 -9 -186 -28 -45 -28 -108 0 -153 33 -53 28 -214 -7 -225 -43 -14 -191
-87 -191 -95 0 -4 -6 -8 -13 -8 -20 0 -148 -106 -200 -166 -49 -57 -119 -170
-132 -213 -11 -36 -182 -209 -240 -242 -50 -29 -38 -41 17 -16 36 16 218 194
218 213 0 21 199 219 285 283 93 70 230 135 340 162 106 27 303 31 400 10 189
-42 354 -124 503 -249 l53 -44 -7 -67 c-7 -71 11 -186 27 -176 5 4 9 23 9 43
0 54 32 162 65 218 48 82 121 151 203 191 64 32 85 37 162 41 65 3 101 0 138
-12 75 -25 165 -88 209 -145 21 -27 46 -60 56 -73 l18 -23 -6 30 c-3 17 -21
61 -40 98 l-34 69 77 34 c268 123 565 96 793 -71 101 -75 251 -253 312 -372
25 -47 41 -53 32 -12 -15 69 -68 190 -114 261 -57 88 -183 209 -267 259 -84
50 -184 89 -276 107 l-77 15 -7 42 c-4 30 -1 52 10 73 22 43 20 110 -4 150
-30 48 -27 125 5 164 32 38 34 108 5 156 -18 29 -20 48 -18 125 3 85 4 92 23
90 99 -13 222 -14 273 -4 57 11 62 10 138 -22 344 -148 608 -321 840 -552 214
-212 372 -448 459 -685 24 -65 28 -90 28 -190 1 -96 -3 -127 -22 -184 -49
-144 -154 -276 -272 -343 -95 -54 -385 -157 -609 -218 -378 -102 -792 -170
-1260 -207 -215 -17 -958 -17 -1185 0 -641 48 -1119 123 -1677 263 -374 94
-457 125 -544 208 -124 118 -184 255 -184 422 0 95 11 143 64 279 130 335 370
658 663 891 175 140 436 291 653 379 76 31 98 35 210 41 69 3 129 6 134 7 5 1
6 -41 3 -100z m1238 -49 c379 -13 405 -18 446 -81 20 -32 20 -41 14 -258 -7
-251 -13 -276 -74 -317 -27 -18 -48 -23 -103 -23 -112 0 -840 29 -875 35 -41
7 -89 52 -100 96 -5 19 -7 128 -3 250 l6 217 28 37 c45 58 73 66 206 61 63 -3
268 -11 455 -17z m-821 -109 l59 0 -6 -61 c-3 -33 -7 -62 -9 -64 -2 -2 -89 -1
-193 2 -180 6 -190 7 -212 29 -29 29 -30 68 0 89 19 15 41 16 162 11 77 -3
166 -6 199 -6z m1684 -48 c83 -6 96 -10 113 -31 22 -27 18 -57 -13 -84 -21
-18 -69 -18 -325 -1 l-83 6 0 59 0 59 108 -1 c59 0 149 -4 200 -7z m-1646
-278 c4 -3 6 -32 6 -66 l-1 -61 -120 7 c-66 3 -155 6 -197 6 -60 0 -83 4 -98
18 -33 27 -37 63 -11 91 l22 23 196 -7 c108 -4 199 -9 203 -11z m1578 -41
c134 -6 146 -8 168 -30 25 -25 23 -52 -7 -87 -15 -17 -28 -18 -221 -12 -113 4
-205 8 -206 9 -1 1 1 30 4 65 l4 62 57 0 c31 0 121 -3 201 -7z m-1510 -188
c68 -62 85 -64 702 -86 329 -11 360 -11 401 5 24 9 54 28 67 41 27 29 56 30
328 18 148 -6 152 -7 152 -28 0 -20 -7 -23 -63 -29 -79 -8 -198 -46 -295 -95
l-73 -37 -60 29 c-93 44 -198 62 -286 49 -133 -21 -266 -100 -340 -203 l-35
-50 -52 44 c-220 186 -480 278 -750 264 -61 -3 -119 -8 -128 -12 -16 -6 -18 0
-18 52 0 33 3 63 8 67 4 5 99 5 212 1 195 -6 206 -8 230 -30z m-2195 -1267
c14 -22 14 -24 -10 -42 -30 -22 -55 -66 -55 -98 0 -13 7 -41 15 -63 8 -22 14
-60 15 -85 0 -25 6 -69 14 -98 12 -47 11 -52 -3 -52 -33 0 -61 30 -61 65 0 52
-20 132 -46 189 -40 87 -29 124 54 177 55 35 57 35 77 7z m5626 -144 c121 -82
219 -176 234 -225 5 -14 0 -28 -16 -45 -12 -13 -25 -24 -29 -24 -3 0 -12 17
-19 37 -19 51 -101 131 -206 199 l-87 56 29 19 c15 10 31 19 34 19 4 0 31 -16
60 -36z m-6086 -244 c105 -17 207 -33 227 -36 29 -4 41 -13 53 -37 14 -29 14
-32 -7 -55 -22 -23 -26 -24 -123 -18 -212 13 -501 38 -519 45 -16 6 -5 18 65
74 47 37 91 65 99 62 8 -2 101 -18 205 -35z m6065 -79 c0 -5 -9 -12 -19 -16
-28 -8 -51 -65 -51 -125 0 -70 -18 -135 -46 -165 -30 -32 -99 -34 -164 -3
l-45 21 51 7 c102 14 133 51 154 175 16 95 30 115 80 115 22 0 40 -4 40 -9z
m615 -149 c39 -11 81 -23 95 -26 14 -4 35 -20 48 -36 l22 -29 -92 26 c-125 34
-348 116 -348 129 0 3 5 14 10 24 9 18 15 16 103 -24 50 -24 124 -52 162 -64z
m-1360 68 l20 -9 -20 0 c-38 -2 -120 -49 -185 -106 -36 -31 -99 -73 -140 -93
-63 -30 -88 -37 -159 -40 -139 -8 -252 29 -395 128 -116 80 -124 96 -28 54
110 -47 219 -75 324 -81 108 -7 160 8 270 79 44 28 96 57 116 64 41 15 166 17
197 4z m-4812 -19 c15 -6 31 -26 42 -53 l17 -43 -54 -48 c-29 -27 -172 -131
-317 -231 l-263 -183 -82 23 c-44 13 -101 29 -125 36 l-44 13 329 224 c181
123 345 234 364 247 37 25 90 31 133 15z m2007 -11 c0 -5 -5 -10 -10 -10 -6 0
-42 -29 -79 -64 -49 -46 -82 -68 -112 -76 -53 -15 -142 -8 -224 17 l-60 19
101 -4 c127 -5 161 5 242 74 53 45 70 54 103 54 21 0 39 -4 39 -10z m3756 -41
c197 -91 402 -163 554 -195 47 -10 87 -19 89 -20 7 -6 -78 -101 -122 -137
l-44 -36 -94 28 c-209 61 -559 211 -559 240 0 43 23 146 33 153 23 15 55 7
143 -33z m-6491 1 c105 -11 214 -20 243 -20 28 0 52 -3 52 -7 -1 -5 -15 -17
-33 -29 -18 -11 -73 -48 -123 -83 l-91 -62 -112 10 c-62 6 -116 13 -121 16 -7
4 -50 167 -50 189 0 9 26 7 235 -14z m3140 -20 c50 -11 133 -23 185 -26 104
-7 320 9 439 32 42 8 123 17 181 19 l105 6 -53 -26 c-237 -111 -575 -125 -851
-35 -91 29 -177 69 -121 55 14 -3 66 -15 115 -25z m-1040 -20 c3 -5 1 -10 -5
-10 -6 0 -41 -28 -78 -63 -78 -74 -165 -134 -242 -167 -45 -20 -72 -25 -145
-25 -78 0 -97 4 -141 27 -54 28 -157 117 -175 150 -7 13 4 9 38 -15 158 -113
231 -111 428 9 61 37 135 75 165 85 61 20 145 25 155 9z m2305 -15 c44 -23 46
-48 9 -102 -236 -346 -511 -658 -790 -898 l-86 -74 -7 46 c-3 25 -6 73 -6 106
l0 60 111 106 c138 130 323 345 466 539 119 162 146 191 195 215 41 21 71 21
108 2z m1229 -15 c27 -10 86 -46 131 -79 154 -114 293 -167 380 -143 29 7 52
3 135 -25 55 -19 102 -36 103 -38 2 -2 -20 -16 -49 -31 -53 -26 -55 -27 -134
-15 -116 18 -343 75 -508 127 -153 49 -287 102 -287 112 0 15 100 91 131 100
47 14 43 14 98 -8z m-2734 -46 c-16 -13 -94 -68 -172 -121 l-143 -96 6 -56 c4
-31 7 -60 8 -65 0 -5 -26 -24 -59 -44 -165 -96 -239 -141 -335 -205 -122 -81
-284 -204 -320 -241 -21 -24 -29 -26 -70 -20 -88 13 -93 5 165 261 218 217
250 244 350 304 179 107 556 302 595 308 3 0 -8 -11 -25 -25z m1119 -76 c-128
-186 -403 -498 -534 -608 -41 -34 -59 -42 -105 -47 -30 -3 -55 -3 -55 1 0 4
58 84 128 179 71 95 161 217 200 272 142 199 138 196 218 216 39 9 98 29 130
42 33 14 63 25 67 26 4 0 -18 -36 -49 -81z m-751 -13 l28 -6 -43 -32 c-48 -36
-206 -149 -225 -161 -13 -7 -230 49 -246 64 -4 4 56 50 134 102 l141 95 92
-28 c50 -15 104 -30 119 -34z m-2051 18 c9 -16 39 -51 67 -79 l50 -51 -49 -21
c-50 -22 -484 -162 -502 -162 -8 0 -1 208 7 218 2 2 59 19 127 37 67 19 155
45 193 58 90 32 88 32 107 0z m3425 -89 c71 -37 130 -68 131 -69 5 -5 82 -344
82 -360 0 -10 -27 -12 -127 -8 -71 3 -129 6 -130 7 -1 1 -24 107 -51 236 -43
207 -51 260 -36 260 2 0 61 -30 131 -66z m-2441 25 c27 -12 51 -23 53 -25 1
-1 -55 -58 -125 -126 -186 -178 -418 -413 -636 -645 -105 -112 -194 -200 -199
-197 -5 3 -9 27 -9 53 0 42 8 60 78 167 93 142 172 247 277 369 131 152 161
181 231 219 68 38 141 91 224 165 25 22 48 41 51 41 4 0 28 -10 55 -21z m3270
-65 c271 -96 507 -162 679 -189 55 -9 100 -17 101 -18 18 -26 94 -167 94 -176
0 -7 -8 -10 -17 -7 -10 2 -45 7 -78 11 -172 18 -498 94 -735 171 -165 54 -400
144 -400 154 0 4 24 12 53 19 38 9 153 61 173 80 1 0 60 -20 130 -45z m-1896
8 c0 -4 -47 -70 -103 -147 -87 -118 -117 -150 -187 -203 -46 -34 -87 -59 -91
-55 -10 11 -89 204 -89 217 0 6 15 21 33 33 17 12 79 55 138 95 l105 73 97 -3
c53 -2 97 -6 97 -10z m-2905 -148 c-7 -128 -6 -137 13 -157 l21 -22 -193 -200
c-107 -110 -196 -198 -198 -195 -3 3 -19 60 -37 128 l-31 124 47 53 c64 71
377 403 382 404 2 1 0 -60 -4 -135z m3780 -102 c31 -148 36 -187 27 -207 -7
-14 -16 -25 -21 -25 -4 0 -45 58 -90 129 l-82 129 62 81 c34 45 63 80 64 79 2
-2 20 -85 40 -186z m-2939 148 c15 -6 60 -11 100 -12 l73 -2 -37 -45 c-20 -25
-72 -88 -115 -139 -106 -127 -208 -265 -280 -381 -33 -53 -61 -97 -62 -99 -7
-9 -215 -27 -215 -18 0 14 113 206 182 309 123 184 292 396 315 397 6 0 24 -5
39 -10z m3594 -88 c44 -19 50 -27 173 -241 70 -121 127 -226 127 -232 0 -14
-42 -89 -49 -89 -3 0 -18 24 -34 53 -66 126 -199 311 -325 453 -45 51 -84 103
-88 118 l-6 26 78 -34 c44 -19 99 -43 124 -54z m1421 -28 c16 -49 29 -96 29
-104 0 -17 -66 -63 -80 -55 -7 5 -110 182 -110 191 0 7 115 63 124 60 5 -1 22
-42 37 -92z m-3606 27 l60 -16 42 -99 c24 -55 41 -101 39 -103 -8 -8 -231 60
-249 75 -18 16 -80 137 -92 179 l-6 22 73 -21 c40 -11 100 -28 133 -37z
m-1688 -3 c-14 -18 -52 -70 -84 -116 l-58 -83 -40 5 c-41 5 -186 74 -192 91
-1 6 34 21 80 34 45 14 132 42 192 62 61 21 114 38 119 38 5 1 -3 -14 -17 -31z
m-1238 -74 l127 -36 18 -44 c17 -43 17 -46 1 -64 -13 -14 -16 -28 -11 -51 4
-23 3 -30 -7 -26 -6 2 -47 15 -90 27 -70 21 -81 28 -106 64 -47 69 -85 166
-65 166 4 0 64 -16 133 -36z m2651 -22 c0 -11 -34 -43 -86 -82 -113 -83 -251
-198 -339 -281 -48 -45 -108 -87 -191 -133 -66 -36 -123 -66 -127 -66 -3 0 -4
6 -2 13 2 6 9 30 14 53 9 34 25 52 103 116 51 41 144 110 206 152 129 89 391
246 409 246 7 0 13 -8 13 -18z m2803 -26 c54 -18 104 -39 112 -47 15 -17 325
-558 325 -569 0 -4 -26 -35 -57 -69 l-58 -61 -221 390 c-122 215 -216 390
-210 390 6 0 55 -16 109 -34z m-1099 -217 c64 -103 116 -189 116 -193 0 -3
-42 -6 -92 -6 l-93 0 -80 142 c-44 78 -81 148 -83 156 -2 7 18 38 43 68 43 50
48 53 60 37 7 -10 65 -102 129 -204z m1693 -130 l142 -224 -91 -3 c-50 -1 -95
1 -99 5 -9 9 -279 480 -279 487 0 2 42 -7 93 -19 l92 -22 142 -224z m-5164
217 l85 -43 -176 -176 -177 -176 -95 20 c-52 10 -99 21 -104 22 -7 2 370 397
379 397 1 0 41 -20 88 -44z m1866 21 c15 -13 55 -32 91 -42 36 -10 68 -20 72
-22 4 -2 -54 -50 -130 -107 -252 -188 -496 -416 -606 -566 -26 -36 -49 -67
-51 -68 -7 -7 -43 73 -66 145 l-23 72 39 48 c57 70 226 236 330 324 126 106
298 239 309 239 6 0 21 -10 35 -23z m3781 -108 c0 -28 -5 -33 -86 -70 -47 -22
-90 -40 -97 -42 -11 -2 -48 112 -40 125 2 4 41 4 87 1 53 -4 90 -2 102 5 29
17 34 15 34 -19z m-1747 12 c17 -6 9 -19 -58 -101 -42 -52 -85 -98 -96 -102
-17 -6 -26 3 -59 55 -22 34 -40 66 -41 70 0 5 13 26 30 48 l32 39 87 -1 c48 0
95 -4 105 -8z m-674 -127 l72 -125 -57 -65 c-66 -75 -50 -84 -144 84 l-63 113
59 60 c32 32 59 59 60 59 1 0 34 -57 73 -126z m-985 100 c44 -15 46 -18 32
-33 -9 -10 -16 -22 -16 -27 0 -5 -33 -27 -73 -48 -121 -66 -322 -194 -427
-271 -97 -73 -239 -204 -276 -257 -13 -18 -32 -29 -58 -34 -38 -7 -38 -6 -25
17 22 42 310 321 422 409 138 109 349 260 363 260 6 0 32 -7 58 -16z m290
-165 c3 -34 6 -84 6 -110 l0 -49 -44 0 -44 0 -20 78 c-38 140 -37 130 -5 135
15 2 44 5 64 6 l36 1 7 -61z m-1671 -40 c31 -7 57 -17 57 -23 -2 -28 -28 -110
-37 -113 -9 -3 -160 61 -172 72 -8 9 62 75 79 75 9 0 42 -5 73 -11z m2650
-117 c-17 -15 -56 -48 -86 -74 -57 -50 -74 -55 -119 -35 l-28 12 61 63 61 62
72 0 71 -1 -32 -27z m-3213 -96 l5 -68 -90 7 c-120 9 -121 9 -133 57 -6 24
-10 43 -9 44 4 4 203 31 212 29 6 -1 12 -32 15 -69z m3471 -35 c108 -51 211
-79 330 -90 98 -9 243 0 323 20 26 6 49 9 52 6 10 -10 -123 -88 -185 -107
-119 -37 -270 -18 -398 51 -77 41 -233 159 -210 159 2 0 42 -18 88 -39z m-656
-30 c-14 -13 -118 -46 -210 -67 -112 -27 -377 -27 -490 -1 -100 23 -224 65
-250 84 -19 14 -18 15 15 9 241 -45 273 -48 485 -43 170 4 231 10 320 29 90
20 113 22 125 11 9 -8 11 -16 5 -22z m508 -37 c112 -106 251 -187 376 -219
214 -54 387 -8 582 156 69 57 110 75 159 67 16 -2 37 -24 67 -73 35 -57 50
-72 81 -82 202 -62 316 -93 346 -93 20 0 36 -3 36 -6 0 -11 -71 -107 -126
-169 -133 -153 -363 -303 -564 -368 -182 -59 -791 -159 -1198 -197 -467 -43
-1144 -43 -1614 0 -288 26 -632 74 -750 104 -203 52 -438 159 -602 274 -189
133 -360 333 -441 517 l-26 58 37 -33 c72 -62 148 -76 219 -40 22 11 56 20 76
20 31 0 40 -6 64 -39 35 -52 129 -140 184 -175 157 -99 340 -91 531 24 82 49
83 50 98 29 7 -11 24 -32 37 -47 l23 -27 64 18 c73 20 201 53 240 61 17 4 34
18 42 35 13 25 21 29 80 34 88 8 124 26 200 97 102 94 131 99 239 41 185 -101
438 -149 685 -131 157 12 297 49 454 120 45 19 51 20 110 6 70 -16 55 -22 157
62 29 23 55 42 58 42 3 0 37 -30 76 -66z m1567 9 c-109 -99 -106 -97 -151 -84
-21 7 -39 15 -39 18 0 4 24 32 53 64 l52 57 74 1 74 1 -63 -57z m-4612 -123
c84 -43 189 -63 284 -56 66 5 104 14 203 50 39 15 -39 -43 -105 -78 -160 -83
-300 -70 -428 39 -36 32 -40 38 -29 56 6 10 12 19 13 19 0 0 28 -14 62 -30z"/>
<path d="M5210 9124 c-187 -23 -375 -75 -501 -140 -155 -80 -254 -191 -305
-340 -24 -71 -27 -93 -26 -219 1 -382 134 -728 367 -959 129 -128 260 -203
445 -253 88 -24 111 -26 305 -27 259 -1 379 19 522 86 180 85 400 326 512 561
84 178 120 326 128 528 5 130 3 154 -15 215 -83 272 -344 443 -800 526 -94 16
-165 21 -357 23 -132 2 -256 1 -275 -1z m-138 -251 c-200 -122 -359 -288 -456
-478 l-36 -70 0 75 c1 140 40 240 129 329 93 93 244 158 415 180 5 0 -18 -16
-52 -36z"/>
<path d="M4952 6000 c-50 -30 -62 -71 -62 -205 0 -111 1 -116 28 -145 36 -41
78 -49 241 -50 l133 0 32 33 c32 32 33 34 40 154 7 132 2 157 -43 197 -17 16
-44 21 -129 27 -174 12 -204 11 -240 -11z"/>
<path d="M5448 5974 c-11 -10 -10 -52 1 -58 19 -12 436 -25 448 -14 17 13 17
43 1 56 -15 12 -440 28 -450 16z"/>
<path d="M5434 5805 c-19 -49 36 -60 335 -65 124 -2 140 2 141 36 0 28 -34 33
-248 40 -207 7 -222 6 -228 -11z"/>
<path d="M5438 5659 c-21 -12 -24 -44 -5 -56 18 -12 429 -31 450 -21 21 11 23
54 2 62 -9 3 -91 8 -183 11 -92 3 -185 7 -207 10 -22 2 -48 -1 -57 -6z"/>
<path d="M7810 8173 c-40 -108 -55 -137 -84 -155 l-31 -19 48 7 c29 4 47 2 47
-4 0 -5 25 -29 57 -52 49 -38 54 -44 40 -55 -9 -7 -14 -15 -10 -18 12 -13 41
-7 47 10 8 19 -21 53 -80 94 l-41 28 29 58 c33 65 35 125 6 131 -12 2 -21 -6
-28 -25z"/>
</g>
</svg>
